<svg width="395.875" height="73.639" viewBox="0 0 395.875 73.639"><g id="Grupo_217" data-name="Grupo 217" transform="translate(-0.125)"><path id="Caminho_1" data-name="Caminho 1" d="M550.133,434.6v33.382s0,.034,0,.1c0,6.974-1.984,17.724-17.827,18.007" transform="translate(-443.637 -413.951)" fill="none" stroke="#61559a" stroke-linecap="round" stroke-width="3"></path><path id="Caminho_2" data-name="Caminho 2" d="M222.727,427.857H209.148s-13.862-.283-13.862-13.862V369.862S195,356,209.148,356h61.106s13.579.283,13.579,13.862v31.4s-.566,8.77-9.053,8.77-8.77-8.77-8.77-8.77V382.027s-.283-8.77-8.77-8.77-9.053,8.77-9.053,8.77v19.237s.566,8.77-8.487,8.77-9.053-8.77-9.053-8.77l-.283-19.237s-.283-8.77-8.77-8.77-9.053,8.77-9.053,8.77v34.8S212.26,427.857,222.727,427.857Z" transform="translate(-195.16 -356)" fill="#ffaa17"></path><g id="Refrigeração" transform="translate(139 9.362)"><text id="Refrigeração-2" data-name="Refrigeração" transform="translate(0 44)" fill="#707070" font-size="41" font-family="DancerProBook, Dancer Pro"><tspan x="0" y="0">Refrigeração</tspan></text></g></g></svg>